<svg width="98" height="98" viewBox="0 0 98 98" fill="none" xmlns="http://www.w3.org/2000/svg">
<path d="M86.9999 82.9C84.8642 82.8818 82.7728 83.5092 80.9999 84.7C79.8567 83.2837 78.4089 82.1436 76.7641 81.3645C75.1192 80.5853 73.3198 80.1873 71.4999 80.2C69.1298 80.2158 66.8123 80.8998 64.8135 82.1734C62.8146 83.447 61.2156 85.2586 60.1999 87.4C58.1693 87.7702 56.2672 88.6536 54.6744 89.9664C53.0816 91.2791 51.8511 92.9775 51.0999 94.9L57.4999 97.5C57.9378 96.5063 58.6504 95.6584 59.5539 95.0561C60.4574 94.4538 61.5142 94.122 62.5999 94.1L65.5999 94.3L66.1999 91.4C66.5047 90.2179 67.1876 89.1678 68.1443 88.4097C69.1011 87.6515 70.2794 87.2267 71.4999 87.2C72.209 87.2 72.9112 87.3397 73.5663 87.611C74.2215 87.8824 74.8168 88.2802 75.3182 88.7816C75.8197 89.283 76.2174 89.8783 76.4888 90.5335C76.7602 91.1886 76.8999 91.8908 76.8999 92.6C76.9398 93.1413 76.8718 93.6851 76.6999 94.2L83.3999 96.3C83.7687 95.1025 83.9377 93.8524 83.8999 92.6V91.5C84.2452 90.9989 84.7087 90.5908 85.2495 90.3117C85.7902 90.0326 86.3914 89.8912 86.9999 89.9C87.974 89.8986 88.9114 90.2714 89.6186 90.9413C90.3257 91.6113 90.7486 92.5272 90.7999 93.5L97.7999 93.1C97.6463 90.3409 96.4411 87.7456 94.4321 85.8482C92.4231 83.9508 89.7632 82.8957 86.9999 82.9V82.9Z" fill="black"/>
<path d="M9.89995 84.4C10.6284 84.4132 11.3394 84.6251 11.9562 85.0128C12.573 85.4005 13.0722 85.9493 13.4 86.6C12.3241 87.6361 11.4685 88.8787 10.8843 90.2533C10.3001 91.628 9.99928 93.1064 9.99995 94.6H17C17 93.4596 17.453 92.3658 18.2594 91.5594C19.0658 90.753 20.1595 90.3 21.2999 90.3C21.848 90.2921 22.392 90.3941 22.9 90.6L25.9 91.8L27.2999 88.9C27.7011 88.1696 28.3257 87.5869 29.0821 87.2374C29.8385 86.8878 30.687 86.7896 31.5032 86.9573C32.3195 87.1251 33.0605 87.5498 33.6178 88.1693C34.1751 88.7889 34.5193 89.5706 34.5999 90.4L34.7999 95L39.2 93.5H40.0999C40.4631 93.4998 40.8226 93.5728 41.1568 93.7147C41.4911 93.8566 41.7933 94.0644 42.0454 94.3258C42.2975 94.5872 42.4942 94.8968 42.6239 95.236C42.7535 95.5752 42.8134 95.9371 42.7999 96.3L49.7999 96.5V96.3C49.8063 93.8177 48.8704 91.4255 47.1814 89.6066C45.4923 87.7876 43.1759 86.6773 40.7 86.5C39.86 84.5434 38.4653 82.8757 36.6881 81.7027C34.911 80.5298 32.8292 79.9031 30.7 79.9C29.1858 79.8877 27.6868 80.2031 26.306 80.8245C24.9251 81.4459 23.695 82.3586 22.7 83.5H19.6C18.6943 81.7103 17.3124 80.2052 15.6063 79.1505C13.9003 78.0957 11.9363 77.5321 9.93051 77.5218C7.92475 77.5114 5.95503 78.0547 4.2382 79.0919C2.52137 80.129 1.12401 81.6198 0.199951 83.4L6.49995 86.6C6.79152 85.9425 7.2684 85.3843 7.87225 84.9935C8.47609 84.6028 9.18073 84.3966 9.89995 84.4V84.4Z" fill="black"/>
<path d="M49.5 69.3C51.8 69.3 55.7 68.9 57.6 66.1C59.6114 63.1459 61.3201 59.9967 62.7 56.7L70.8 64.2L73.1 61.6C76.0181 58.3981 77.5507 54.1718 77.3634 49.8438C77.176 45.5158 75.2838 41.4377 72.1 38.5C70.4375 36.9824 68.5481 35.734 66.5 34.8C65.8 23 60.8 12.1 51.5 2.79999L49 0.299988L46.6 2.79999C37.3 12.1 32.2 23 31.6 34.8C29.5392 35.7107 27.6461 36.9615 26 38.5C24.4049 39.9407 23.1105 41.6827 22.1913 43.6256C21.272 45.5686 20.7462 47.6741 20.6439 49.8211C20.5417 51.9681 20.8651 54.1141 21.5955 56.1356C22.326 58.1572 23.449 60.0142 24.9 61.6L27.3 64.2L35.4 56.8C36.648 59.8927 38.2236 62.8429 40.1 65.6C42.3 69 47.8 69.3 49.4 69.3H49.5ZM69.8 53.8L65.3 49.7L65.1 49.3C65.3 48.6 65.4 47.8 65.6 47C65.9047 45.5832 66.1052 44.146 66.2 42.7L67.4 43.7C68.7477 44.9618 69.6939 46.5925 70.1207 48.3886C70.5476 50.1848 70.436 52.0668 69.8 53.8V53.8ZM49 10.4L52.1 14.3C50.1106 14.8977 47.9894 14.8977 46 14.3C46.8667 13.0333 47.8667 11.7333 49 10.4ZM42.3 20.5C44.4473 21.2837 46.7142 21.6897 49 21.7C51.2876 21.7088 53.5577 21.3022 55.7 20.5C59.4018 28.3537 60.4545 37.1967 58.7 45.7L58.4 47.2C55.5675 48.8712 52.3388 49.7527 49.05 49.7527C45.7612 49.7527 42.5325 48.8712 39.7 47.2L39.4 45.9C37.5547 37.3444 38.5737 28.4194 42.3 20.5V20.5ZM30.7 43.7L31.8 42.7C32 44.2 32.2 45.7 32.5 47.2C32.6192 47.9104 32.7863 48.612 33 49.3L32.7 49.7L28.2 53.8C27.576 52.0574 27.4804 50.1693 27.9252 48.3725C28.3699 46.5758 29.3352 44.9503 30.7 43.7V43.7ZM42.7 55.9C46.8487 57.0973 51.2514 57.0973 55.4 55.9C54.4247 57.9855 53.2879 59.9916 52 61.9C50.7 62.5 46.9 62.3 45.8 61.6C44.6105 59.7892 43.5736 57.8826 42.7 55.9V55.9Z" fill="black"/>
<path d="M48.9999 43.8C50.859 43.8 52.6764 43.2487 54.2222 42.2158C55.768 41.1829 56.9729 39.7149 57.6843 37.9972C58.3958 36.2796 58.5819 34.3896 58.2192 32.5662C57.8565 30.7427 56.9613 29.0678 55.6467 27.7532C54.332 26.4386 52.6571 25.5433 50.8337 25.1806C49.0103 24.8179 47.1203 25.0041 45.4026 25.7155C43.685 26.427 42.2169 27.6318 41.184 29.1776C40.1512 30.7235 39.5999 32.5409 39.5999 34.4C39.5999 36.893 40.5902 39.284 42.3531 41.0468C44.1159 42.8096 46.5068 43.8 48.9999 43.8ZM48.9999 32C49.4745 32 49.9385 32.1408 50.3332 32.4045C50.7279 32.6682 51.0355 33.043 51.2172 33.4816C51.3988 33.9201 51.4463 34.4027 51.3537 34.8682C51.2611 35.3338 51.0326 35.7614 50.6969 36.0971C50.3613 36.4327 49.9336 36.6613 49.4681 36.7539C49.0025 36.8465 48.52 36.799 48.0814 36.6173C47.6429 36.4357 47.268 36.1281 47.0043 35.7334C46.7406 35.3387 46.5999 34.8747 46.5999 34.4C46.5999 33.7635 46.8527 33.153 47.3028 32.7029C47.7529 32.2529 48.3633 32 48.9999 32V32Z" fill="black"/>
<path d="M52.5 71.7H45.5V85.24H52.5V71.7Z" fill="black"/>
<path d="M61.8999 68.9H54.8999V80.57H61.8999V68.9Z" fill="black"/>
<path d="M43.2 68.9H36.2V80.57H43.2V68.9Z" fill="black"/>
</svg>
