<svg width="45" height="45" viewBox="0 0 45 45" fill="none" xmlns="http://www.w3.org/2000/svg">
<path d="M19.0742 4.07422C16.1075 4.07422 13.2074 4.95395 10.7407 6.60217C8.27393 8.2504 6.35135 10.5931 5.21603 13.334C4.08072 16.0749 3.78367 19.0909 4.36245 22.0006C4.94122 24.9103 6.36984 27.583 8.46762 29.6808C10.5654 31.7786 13.2382 33.2072 16.1479 33.786C19.0576 34.3648 22.0736 34.0677 24.8145 32.9324C27.5554 31.7971 29.898 29.8745 31.5463 27.4078C33.1945 24.941 34.0742 22.0409 34.0742 19.0742C34.0697 15.0974 32.4879 11.2847 29.6759 8.47259C26.8638 5.66052 23.0511 4.07872 19.0742 4.07422V4.07422ZM19.0742 32.0742C16.5031 32.0742 13.9897 31.3118 11.8518 29.8833C9.71397 28.4549 8.04773 26.4245 7.06379 24.0491C6.07985 21.6737 5.82241 19.0598 6.32402 16.538C6.82562 14.0163 8.06375 11.6999 9.88184 9.88183C11.6999 8.06375 14.0163 6.82562 16.5381 6.32401C19.0598 5.8224 21.6737 6.07985 24.0491 7.06378C26.4245 8.04772 28.4549 9.71397 29.8833 11.8518C31.3118 13.9896 32.0742 16.5031 32.0742 19.0742C32.0705 22.5209 30.6997 25.8253 28.2625 28.2625C25.8253 30.6997 22.5209 32.0705 19.0742 32.0742Z" fill="#5fe36a"/>
<path d="M42.9522 37.5382L34.9302 29.5162C37.5261 25.5792 38.5683 20.8187 37.8549 16.1572C37.1415 11.4956 34.7233 7.26479 31.0688 4.28428C27.4143 1.30378 22.7836 -0.214208 18.0738 0.0244019C13.364 0.263012 8.91042 2.24123 5.57583 5.57583C2.24123 8.91042 0.263012 13.364 0.0244019 18.0738C-0.214208 22.7836 1.30378 27.4143 4.28428 31.0688C7.26479 34.7233 11.4956 37.1415 16.1572 37.8549C20.8187 38.5683 25.5792 37.5261 29.5162 34.9302L37.5382 42.9522C38.2562 43.6702 39.2299 44.0735 40.2452 44.0735C41.2605 44.0735 42.2343 43.6702 42.9522 42.9522C43.6702 42.2343 44.0735 41.2605 44.0735 40.2452C44.0735 39.2299 43.6702 38.2562 42.9522 37.5382V37.5382ZM2.07422 19.0742C2.07422 15.7119 3.07125 12.4252 4.93923 9.62952C6.80722 6.83389 9.46225 4.65495 12.5686 3.36826C15.6749 2.08157 19.0931 1.74492 22.3908 2.40087C25.6884 3.05682 28.7175 4.67591 31.095 7.0534C33.4725 9.43089 35.0916 12.46 35.7476 15.7577C36.4035 19.0554 36.0669 22.4735 34.7802 25.5798C33.4935 28.6862 31.3145 31.3412 28.5189 33.2092C25.7233 35.0772 22.4365 36.0742 19.0742 36.0742C14.5671 36.0692 10.246 34.2765 7.05896 31.0895C3.87193 27.9025 2.07925 23.5814 2.07422 19.0742V19.0742ZM33.7342 31.1482L35.6602 33.0742L33.0742 35.6602L31.1482 33.7342C32.0907 32.9566 32.9566 32.0907 33.7342 31.1482ZM41.5342 41.5392C41.1861 41.8721 40.7229 42.0579 40.2412 42.0579C39.7595 42.0579 39.2964 41.8721 38.9482 41.5392L34.4882 37.0742L37.0742 34.4882L41.5382 38.9522C41.7081 39.122 41.8428 39.3235 41.9348 39.5454C42.0267 39.7673 42.074 40.0051 42.074 40.2452C42.074 40.4854 42.0267 40.7232 41.9348 40.945C41.8428 41.1669 41.7081 41.3685 41.5382 41.5382L41.5342 41.5392Z" fill="#5fe36a"/>
<path d="M23.8022 18.7253L21.3172 18.1043C21.0856 18.0457 20.8406 18.0727 20.6272 18.1803L19.0742 18.9563L17.5212 18.1803C17.3079 18.0727 17.0629 18.0458 16.8312 18.1043L14.3462 18.7253C13.6971 18.8876 13.1209 19.2623 12.7093 19.7898C12.2976 20.3172 12.0741 20.9672 12.0742 21.6363V26.0743C12.0742 26.3395 12.1796 26.5938 12.3671 26.7814C12.5546 26.9689 12.809 27.0743 13.0742 27.0743H25.0742C25.3394 27.0743 25.5938 26.9689 25.7813 26.7814C25.9689 26.5938 26.0742 26.3395 26.0742 26.0743V21.6363C26.0744 20.9672 25.8508 20.3172 25.4392 19.7898C25.0275 19.2623 24.4513 18.8876 23.8022 18.7253ZM24.0742 25.0743H14.0742V21.6363C14.0743 21.4132 14.1489 21.1966 14.2863 21.0208C14.4236 20.845 14.6158 20.7202 14.8322 20.6663L16.9582 20.1353L18.6272 20.9693C18.7661 21.0388 18.9194 21.075 19.0747 21.075C19.2301 21.075 19.3833 21.0388 19.5222 20.9693L21.1912 20.1353L23.3172 20.6663C23.5337 20.7202 23.7258 20.845 23.8632 21.0208C24.0005 21.1966 24.0752 21.4132 24.0752 21.6363V25.0743H24.0742Z" fill="#5fe36a"/>
<path d="M19.0742 18.0742C21.4742 18.0742 23.0742 15.0652 23.0742 13.0742C23.0742 12.0134 22.6528 10.9959 21.9026 10.2458C21.1525 9.49565 20.1351 9.07422 19.0742 9.07422C18.0134 9.07422 16.9959 9.49565 16.2458 10.2458C15.4956 10.9959 15.0742 12.0134 15.0742 13.0742C15.0742 15.0652 16.6742 18.0742 19.0742 18.0742ZM19.0742 11.0742C19.6047 11.0742 20.1134 11.2849 20.4884 11.66C20.8635 12.0351 21.0742 12.5438 21.0742 13.0742C21.0742 14.3132 20.0402 16.0742 19.0742 16.0742C18.1082 16.0742 17.0742 14.3132 17.0742 13.0742C17.0742 12.5438 17.2849 12.0351 17.66 11.66C18.0351 11.2849 18.5438 11.0742 19.0742 11.0742V11.0742Z" fill="#5fe36a"/>
</svg>
