<?xml version="1.0" encoding="iso-8859-1"?>
<!-- Generator: Adobe Illustrator 16.0.0, SVG Export Plug-In . SVG Version: 6.00 Build 0)  -->
<!DOCTYPE svg PUBLIC "-//W3C//DTD SVG 1.1//EN" "http://www.w3.org/Graphics/SVG/1.1/DTD/svg11.dtd">
<svg version="1.1" id="Capa_1" xmlns="http://www.w3.org/2000/svg" xmlns:xlink="http://www.w3.org/1999/xlink" x="0px" y="0px"
	 width="213.61px" height="213.609px" viewBox="0 0 213.61 213.609" style="enable-background:new 0 0 213.61 213.609;"
	 xml:space="preserve">
<g>
	<g>
		<path d="M182.715,106.347c-13.908-42.903-75.909-11.422-75.909-11.422s-62.004-31.481-75.912,11.422
			c-12.954,39.98,75.912,107.263,75.912,107.263S195.671,146.327,182.715,106.347z"/>
		<path d="M98.552,81.421c0.502-4.134,3.98-7.35,8.248-7.35c4.265,0,7.746,3.215,8.255,7.35l36.871-4.545l27.852-54.601
			l-33.42,5.573l-0.567,33.417l-11.142-27.854l-22.277,33.416l16.716-50.12L106.806,0l-22.28,16.713l16.713,50.121L78.964,33.417
			L67.822,61.271l-0.576-33.417l-33.417-5.573l27.849,54.601L98.552,81.421z M157.5,33.562c3.002,0,5.438,2.427,5.438,5.429
			c0,2.997-2.436,5.429-5.438,5.429c-3.009,0-5.433-2.433-5.433-5.429S154.492,33.562,157.5,33.562z M134.655,50.188
			c2.424,0,4.392,1.96,4.392,4.395c0,2.421-1.968,4.401-4.392,4.401c-2.423,0-4.397-1.974-4.397-4.401
			C130.257,52.157,132.226,50.188,134.655,50.188z M97.757,21.457c0-4.998,4.049-9.049,9.049-9.049c4.998,0,9.047,4.052,9.047,9.049
			c0,5-4.049,9.055-9.047,9.055C101.806,30.512,97.757,26.463,97.757,21.457z M78.952,50.188c2.427,0,4.395,1.96,4.395,4.395
			c0,2.421-1.968,4.401-4.395,4.401c-2.42,0-4.395-1.974-4.395-4.401C74.563,52.157,76.532,50.188,78.952,50.188z M56.11,44.426
			c-3.003,0-5.435-2.433-5.435-5.429c0-3.002,2.432-5.429,5.435-5.429c3.009,0,5.435,2.427,5.435,5.429
			C61.544,41.993,59.112,44.426,56.11,44.426z"/>
	</g>
</g>
<g>
</g>
<g>
</g>
<g>
</g>
<g>
</g>
<g>
</g>
<g>
</g>
<g>
</g>
<g>
</g>
<g>
</g>
<g>
</g>
<g>
</g>
<g>
</g>
<g>
</g>
<g>
</g>
<g>
</g>
</svg>
